<svg xmlns="http://www.w3.org/2000/svg" width="600" height="900" viewBox="0 0 600 900">
  <rect width="600" height="900" fill="#f9f5f0"/>
  <defs>
    <pattern id="grid" width="30" height="30" patternUnits="userSpaceOnUse">
      <path d="M 30 0 L 0 0 0 30" fill="none" stroke="#302b70" stroke-opacity="0.08" stroke-width="1"/>
    </pattern>
  </defs>
  <rect width="600" height="900" fill="url(#grid)"/>
  <rect x="30" y="30" width="540" height="840" fill="none" stroke="#302b70" stroke-opacity="0.55" stroke-width="2"/>
  <rect x="42" y="42" width="516" height="816" fill="none" stroke="#302b70" stroke-opacity="0.25" stroke-width="1"/>
  <text x="300" y="140" text-anchor="middle" fill="#302b70" fill-opacity="0.75"
        font-family="Georgia, 'Times New Roman', serif" font-size="19" letter-spacing="6">E-BOOK · ESCRITA</text>
  <line x1="240" y1="175" x2="360" y2="175" stroke="#302b70" stroke-opacity="0.6" stroke-width="1.5"/>
  <text text-anchor="middle" fill="#302b70"
        font-family="Georgia, 'Times New Roman', serif" font-size="68" font-weight="bold"><tspan x="300" y="367.64">Escrita</tspan><tspan x="300" dy="80.24">Acadêmica</tspan><tspan x="300" dy="80.24">sem Medo</tspan></text>
  <line x1="240" y1="660" x2="360" y2="660" stroke="#302b70" stroke-opacity="0.6" stroke-width="1.5"/>
  <text x="300" y="712" text-anchor="middle" fill="#302b70" fill-opacity="0.9"
        font-family="Georgia, 'Times New Roman', serif" font-size="22" letter-spacing="3">KARINE Z. LAZZARETTI</text>
  <g transform="translate(300 800)" fill="none" stroke="#302b70" stroke-opacity="0.85" stroke-width="2.5" stroke-linecap="round" stroke-linejoin="round">
    <path d="M -26 6 C -18 -2 -8 -4 0 0 C 8 -4 18 -2 26 6"/>
    <path d="M -26 6 L -26 10 C -16 4 -6 3 0 6 C 6 3 16 4 26 10 L 26 6"/>
    <path d="M 4 2 L 20 -18 L 23 -15 L 8 4 Z"/>
  </g>
  <text x="300" y="846" text-anchor="middle" fill="#302b70" fill-opacity="0.7"
        font-family="Georgia, 'Times New Roman', serif" font-size="15" letter-spacing="4">KR EDITORIAL</text>
</svg>
